<?xml version="1.0" encoding="utf-8"?>
<!-- Generator: Adobe Illustrator 25.4.1, SVG Export Plug-In . SVG Version: 6.00 Build 0)  -->
<svg version="1.1" id="Layer_1" xmlns="http://www.w3.org/2000/svg" xmlns:xlink="http://www.w3.org/1999/xlink" x="0px" y="0px"
	 viewBox="0 0 450 100" style="enable-background:new 0 0 450 100;" xml:space="preserve">
<style type="text/css">
	.st0{fill:#FFFFFF;}
</style>
<g>
	<path class="st0" d="M32.73,72.08c2.07-0.05,4.19-0.08,6.36-0.11c2.17-0.02,4.46-0.2,6.87-0.52c2.41-0.32,5.4-2.76,8.94-7.32
		c3.55-4.56,6.16-9.25,7.83-14.08h1.18v23.5H5.83v-1.18c0.64,0,1.38-0.04,2.22-0.11c0.84-0.07,1.79-0.17,2.85-0.3
		c1.06-0.12,1.87-0.49,2.44-1.11c0.57-0.62,0.92-1.71,1.07-3.29l0.15-3.4V29.15l-0.15-3.4c-0.15-1.58-0.52-2.68-1.11-3.33
		c-0.59-0.64-1.42-1.03-2.48-1.18c-1.06-0.15-2.02-0.23-2.88-0.26c-0.86-0.02-1.64-0.06-2.33-0.11v-1.18h56.83v21.88h-1.18
		c-2.51-5.52-5.57-10.16-9.16-13.93c-3.6-3.77-6.61-5.78-9.05-6.02c-2.44-0.25-4.5-0.39-6.17-0.44c-1.68-0.05-2.78-0.07-3.33-0.07
		h-0.67l-0.15,24.24l3.1-0.15c2.86-0.3,5.01-1.64,6.47-4.03c1.45-2.39,2.18-5.21,2.18-8.46h1.4v26.9h-1.4c0-3.3-0.73-6.18-2.18-8.65
		c-1.45-2.46-3.61-3.84-6.47-4.14l-3.1-0.15V72.08z"/>
	<path class="st0" d="M67.17,90.63v-1.18l2.59-0.15c1.43-0.15,2.34-0.46,2.73-0.92c0.39-0.47,0.59-1.42,0.59-2.84l0.07-3.03V46.66
		l-0.07-3.03c0-1.38-0.21-2.32-0.63-2.81c-0.42-0.49-1.34-0.81-2.77-0.96l-2.36-0.15v-1.18h19.95v4.36c0.54-1.13,1.41-2.27,2.62-3.4
		c1.2-1.13,3.48-1.7,6.82-1.7c4.72,0,8.55,1.65,11.5,4.95c2.95,3.3,4.42,7.79,4.42,13.45c0,5.47-1.48,9.85-4.43,13.15
		c-2.96,3.3-6.8,4.95-11.53,4.95c-3.42,0-5.7-0.47-6.82-1.4s-1.96-1.92-2.49-2.96l0.07,4.36v7.02l0.15,3.4
		c0.15,1.67,0.48,2.8,0.99,3.36s1.53,0.95,3.04,1.15l3.51,0.22v1.18H67.17z M87.64,68.46c0.2,1.23,0.75,2.17,1.65,2.81
		c0.91,0.64,1.92,0.96,3.05,0.96c1.52,0,2.65-0.74,3.41-2.22c0.76-1.48,1.23-3.1,1.43-4.88c0.19-1.77,0.33-3.35,0.4-4.73
		c0.07-1.38,0.11-2.88,0.11-4.51v-4.8c-0.15-1.43-0.31-2.92-0.48-4.47c-0.17-1.55-0.65-3.05-1.43-4.51
		c-0.78-1.45-1.98-2.18-3.6-2.18c-0.98,0-1.92,0.43-2.83,1.29c-0.91,0.86-1.46,1.91-1.65,3.14c-0.1,1.18-0.17,2.72-0.22,4.62
		c-0.05,1.9-0.07,3.78-0.07,5.65v8.13C87.42,65.04,87.49,66.94,87.64,68.46z"/>
	<path class="st0" d="M138.34,73.56h-24.02v-1.18l1.77-0.07c1.43-0.15,2.29-0.49,2.59-1.03c0.3-0.54,0.44-1.72,0.44-3.55l0.07-3.4
		V46.66l-0.07-3.03c-0.1-1.18-0.25-2.07-0.44-2.66c-0.2-0.59-1.08-0.96-2.66-1.11l-2-0.15v-1.18h19.44v25.79l0.07,3.4
		c0,1.77,0.15,2.94,0.44,3.51c0.3,0.57,1.16,0.92,2.59,1.07l1.77,0.07V73.56z M118.97,26.19c0-1.92,0.71-3.56,2.12-4.91
		c1.41-1.35,3.11-2.03,5.09-2.03c2.03,0,3.75,0.65,5.16,1.96c1.41,1.31,2.12,2.97,2.12,4.99c0,1.97-0.71,3.63-2.12,4.99
		c-1.41,1.36-3.13,2.03-5.16,2.03c-1.98,0-3.68-0.68-5.09-2.03C119.68,29.83,118.97,28.16,118.97,26.19z"/>
	<path class="st0" d="M162.06,38.98c-1.38,0-2.54,0.54-3.47,1.63c-0.94,1.08-1.66,2.41-2.18,3.99c-0.52,1.58-0.89,3.29-1.11,5.14
		c-0.22,1.85-0.33,3.63-0.33,5.36c0,4.48,0.75,8.39,2.26,11.71c1.51,3.33,4.16,4.99,7.97,4.99c2.72,0,5.09-0.85,7.12-2.55
		c2.03-1.7,3.56-3.85,4.6-6.47l1.11,0.59c-3.31,7.29-9.23,10.94-17.77,10.94c-5.63,0-10.42-1.66-14.37-4.99
		c-3.95-3.33-5.92-7.72-5.92-13.19c0-5.52,1.94-9.95,5.81-13.3c3.88-3.35,8.7-5.03,14.48-5.03c2.17,0,4.17,0.23,6,0.7
		c1.83,0.47,3.54,1.11,5.15,1.92c1.6,0.81,3.13,1.97,4.59,3.47c1.46,1.5,2.18,3.26,2.18,5.28c0,1.82-0.57,3.29-1.71,4.4
		c-1.14,1.11-2.82,1.66-5.05,1.66c-1.93,0-3.68-0.68-5.24-2.03c-1.56-1.35-2.34-2.89-2.34-4.62c0-1.33,0.27-2.61,0.81-3.84
		c0.54-1.23,0.81-2.27,0.81-3.1c0-0.79-0.3-1.43-0.89-1.92C163.98,39.22,163.14,38.98,162.06,38.98z"/>
	<path class="st0" d="M207.14,72.08c2.07-0.05,4.19-0.08,6.36-0.11c2.17-0.02,4.46-0.2,6.87-0.52c2.41-0.32,5.4-2.76,8.94-7.32
		c3.55-4.56,6.16-9.25,7.83-14.08h1.18v23.5h-58.09v-1.18c0.64,0,1.38-0.04,2.22-0.11c0.84-0.07,1.79-0.17,2.85-0.3
		c1.06-0.12,1.87-0.49,2.44-1.11c0.57-0.62,0.92-1.71,1.07-3.29l0.15-3.4V29.15l-0.15-3.4c-0.15-1.58-0.52-2.68-1.11-3.33
		c-0.59-0.64-1.42-1.03-2.48-1.18c-1.06-0.15-2.02-0.23-2.88-0.26c-0.86-0.02-1.64-0.06-2.33-0.11v-1.18h56.83v21.88h-1.18
		c-2.51-5.52-5.57-10.16-9.16-13.93c-3.6-3.77-6.61-5.78-9.05-6.02c-2.44-0.25-4.5-0.39-6.17-0.44c-1.68-0.05-2.78-0.07-3.33-0.07
		h-0.67l-0.15,24.24l3.1-0.15c2.86-0.3,5.01-1.64,6.47-4.03c1.45-2.39,2.18-5.21,2.18-8.46h1.4v26.9h-1.4c0-3.3-0.73-6.18-2.18-8.65
		c-1.45-2.46-3.61-3.84-6.47-4.14l-3.1-0.15V72.08z"/>
	<path class="st0" d="M245.64,58.27h0.96c1.28,3.99,2.56,6.92,3.84,8.79c1.28,1.87,2.67,3.28,4.17,4.21c1.5,0.94,3.34,1.4,5.51,1.4
		c1.23,0,2.29-0.33,3.18-1c0.89-0.67,1.33-1.59,1.33-2.77c0-1.53-0.35-2.66-1.04-3.4c-0.69-0.74-1.77-1.54-3.25-2.4
		c-1.48-0.86-3.19-1.82-5.14-2.88c-1.95-1.06-3.57-2.09-4.88-3.1c-1.31-1.01-2.32-2.16-3.03-3.44c-0.71-1.28-1.07-2.76-1.07-4.43
		c0-3.65,1.38-6.47,4.14-8.46c2.76-2,6.13-2.99,10.12-2.99c1.87,0,3.65,0.35,5.32,1.03c1.62,0.84,3.28,1.65,4.95,2.44
		c0.69,0,1.28-0.42,1.77-1.26c0.49-0.84,0.74-1.82,0.74-2.96h1.03v14.85h-0.96c-0.4-1.18-0.89-2.49-1.48-3.92
		c-0.59-1.43-1.44-2.87-2.55-4.32c-1.11-1.45-2.28-2.57-3.51-3.36c-1.23-0.79-2.81-1.18-4.73-1.18c-1.38,0-2.5,0.33-3.36,1
		c-0.86,0.67-1.29,1.49-1.29,2.48c0,1.13,0.31,2.02,0.92,2.66c0.62,0.64,1.51,1.32,2.7,2.03c1.18,0.71,2.79,1.63,4.84,2.73
		c2.04,1.11,3.88,2.21,5.5,3.29c1.63,1.08,2.98,2.43,4.07,4.03c1.08,1.6,1.63,3.44,1.63,5.51c0,3.79-1.44,6.65-4.32,8.57
		c-2.88,1.92-6.37,2.88-10.46,2.88c-2.12,0-4.19-0.44-6.21-1.33c-1.97-0.99-3.92-2-5.84-3.03c-0.64,0-1.21,0.52-1.7,1.55
		c-0.49,1.04-0.79,2.14-0.89,3.33h-1.03V58.27z"/>
	<path class="st0" d="M301.36,38.98c-1.38,0-2.54,0.54-3.47,1.63c-0.94,1.08-1.66,2.41-2.18,3.99c-0.52,1.58-0.89,3.29-1.11,5.14
		c-0.22,1.85-0.33,3.63-0.33,5.36c0,4.48,0.75,8.39,2.26,11.71c1.51,3.33,4.16,4.99,7.97,4.99c2.72,0,5.09-0.85,7.12-2.55
		c2.03-1.7,3.56-3.85,4.6-6.47l1.11,0.59c-3.31,7.29-9.23,10.94-17.77,10.94c-5.63,0-10.42-1.66-14.37-4.99
		c-3.95-3.33-5.92-7.72-5.92-13.19c0-5.52,1.94-9.95,5.81-13.3c3.88-3.35,8.7-5.03,14.48-5.03c2.17,0,4.17,0.23,6,0.7
		c1.83,0.47,3.54,1.11,5.15,1.92c1.6,0.81,3.13,1.97,4.59,3.47c1.46,1.5,2.18,3.26,2.18,5.28c0,1.82-0.57,3.29-1.71,4.4
		c-1.14,1.11-2.82,1.66-5.05,1.66c-1.93,0-3.68-0.68-5.24-2.03c-1.56-1.35-2.34-2.89-2.34-4.62c0-1.33,0.27-2.61,0.81-3.84
		c0.54-1.23,0.81-2.27,0.81-3.1c0-0.79-0.3-1.43-0.89-1.92C303.29,39.22,302.45,38.98,301.36,38.98z"/>
	<path class="st0" d="M356.76,69.94c1.17,0,1.98-0.73,2.44-2.19c0.46-1.46,0.69-3.21,0.69-5.24h1.03c0,4.35-0.78,7.22-2.33,8.6
		c-1.55,1.38-2.94,2.26-4.17,2.63c-1.23,0.37-2.81,0.56-4.73,0.56c-2.12,0-4-0.54-5.65-1.63c-1.65-1.09-2.65-2.54-2.99-4.37
		c-0.79,2-2.11,3.5-3.95,4.5c-1.85,1-4.25,1.5-7.21,1.5c-3.15,0-5.72-0.86-7.69-2.59c-1.97-1.73-2.96-4.12-2.96-7.18
		c0-2.47,0.62-4.46,1.85-5.96s2.49-2.43,3.77-2.78c1.28-0.35,3.25-0.64,5.91-0.89s4.62-0.53,5.88-0.85c1.26-0.32,2.16-0.67,2.7-1.04
		c0.54-0.37,0.81-1,0.81-1.89l-0.07-6.74c0-1.92-0.25-3.31-0.73-4.15c-0.49-0.84-1.51-1.26-3.07-1.26c-0.98,0-1.79,0.22-2.45,0.67
		s-0.99,1.02-0.99,1.71c0,0.54,0.52,1.23,1.58,2.04c1.05,0.82,1.58,2.04,1.58,3.68c0,1.53-0.68,2.9-2.04,4.08
		c-1.36,1.19-3.57,1.78-6.63,1.78c-1.68,0-3.15-0.46-4.41-1.37s-1.89-2.14-1.89-3.67c0-3.07,1.72-5.52,5.15-7.35
		s7.52-2.75,12.26-2.75c4,0,7.68,0.83,11.04,2.49c3.36,1.66,5.04,4.22,5.04,7.68v17c0,1.58,0.15,2.8,0.44,3.64
		C355.18,69.5,355.79,69.94,356.76,69.94z M340.16,67.72V53.61l-0.22-0.07c-0.44,0.59-1.25,1.15-2.45,1.66
		c-1.19,0.52-2.02,1.02-2.48,1.51c-0.46,0.49-0.83,1.44-1.1,2.85c-0.27,1.4-0.4,2.84-0.4,4.32c0,2.22,0.17,3.99,0.51,5.32
		c0.34,1.33,1.12,2,2.34,2c0.92,0,1.74-0.37,2.45-1.11C339.52,69.35,339.97,68.56,340.16,67.72z"/>
	<path class="st0" d="M359.23,90.63v-1.18l2.59-0.15c1.43-0.15,2.34-0.46,2.73-0.92c0.39-0.47,0.59-1.42,0.59-2.84l0.07-3.03V46.66
		l-0.07-3.03c0-1.38-0.21-2.32-0.63-2.81c-0.42-0.49-1.34-0.81-2.77-0.96l-2.37-0.15v-1.18h19.95v4.36c0.54-1.13,1.41-2.27,2.62-3.4
		c1.2-1.13,3.48-1.7,6.82-1.7c4.72,0,8.55,1.65,11.5,4.95c2.95,3.3,4.42,7.79,4.42,13.45c0,5.47-1.48,9.85-4.43,13.15
		c-2.96,3.3-6.8,4.95-11.53,4.95c-3.42,0-5.7-0.47-6.82-1.4s-1.96-1.92-2.49-2.96l0.07,4.36v7.02l0.15,3.4
		c0.15,1.67,0.48,2.8,0.99,3.36s1.53,0.95,3.04,1.15l3.51,0.22v1.18H359.23z M379.7,68.46c0.19,1.23,0.74,2.17,1.65,2.81
		c0.91,0.64,1.92,0.96,3.05,0.96c1.52,0,2.65-0.74,3.41-2.22c0.76-1.48,1.23-3.1,1.43-4.88c0.2-1.77,0.33-3.35,0.4-4.73
		c0.07-1.38,0.11-2.88,0.11-4.51v-4.8c-0.15-1.43-0.31-2.92-0.48-4.47c-0.17-1.55-0.65-3.05-1.43-4.51
		c-0.78-1.45-1.98-2.18-3.6-2.18c-0.98,0-1.92,0.43-2.83,1.29c-0.91,0.86-1.46,1.91-1.65,3.14c-0.1,1.18-0.17,2.72-0.22,4.62
		c-0.05,1.9-0.07,3.78-0.07,5.65v8.13C379.48,65.04,379.55,66.94,379.7,68.46z"/>
	<path class="st0" d="M444.36,62.48c-1.38,3.7-3.6,6.59-6.67,8.68c-3.06,2.09-6.66,3.14-10.81,3.14c-5.83,0-10.61-1.61-14.37-4.84
		c-3.75-3.23-5.63-7.7-5.63-13.41c0-5.32,1.94-9.69,5.81-13.12c3.88-3.42,8.53-5.14,13.96-5.14c5.68,0,10.02,1.6,13.03,4.8
		c3.01,3.2,4.52,7.12,4.52,11.75h-22.69c0,1.77,0.13,3.58,0.4,5.43c0.27,1.85,0.78,3.63,1.54,5.36s1.83,3.12,3.23,4.18
		s3.14,1.59,5.25,1.59c3.02,0,5.41-0.85,7.17-2.55c1.76-1.7,3.11-3.83,4.05-6.39L444.36,62.48z M431.28,52.87
		c-0.05-0.54-0.09-1.18-0.11-1.92s-0.04-1.67-0.04-2.81c0-3-0.37-5.28-1.1-6.84c-0.73-1.55-2.01-2.33-3.81-2.33
		c-1.56,0-2.65,0.75-3.26,2.25c-0.61,1.5-1.04,3.81-1.28,6.91l-0.15,4.73H431.28z"/>
</g>
</svg>
